<?xml version="1.0" encoding="UTF-8"?>
<!DOCTYPE svg PUBLIC "-//W3C//DTD SVG 1.1//EN" "http://www.w3.org/Graphics/SVG/1.1/DTD/svg11.dtd">
<!-- Creator: CorelDRAW X6 -->
<svg xmlns="http://www.w3.org/2000/svg" xml:space="preserve" width="450mm" height="450mm" version="1.1" shape-rendering="geometricPrecision" text-rendering="geometricPrecision" image-rendering="optimizeQuality" fill-rule="evenodd" clip-rule="evenodd"
viewBox="0 0 45000 45000"
 xmlns:xlink="http://www.w3.org/1999/xlink">
 <g id="Layer_x0020_1">
  <metadata id="CorelCorpID_0Corel-Layer"/>
  <circle fill="none" stroke="black" stroke-width="52.92" stroke-linecap="round" stroke-linejoin="round" cx="14826" cy="22500" r="7500"/>
  <path fill="none" stroke="black" stroke-width="52.92" stroke-linecap="round" stroke-linejoin="round" d="M16076 20812l0 1875c0,690 -560,1250 -1250,1250 -690,0 -1250,-560 -1250,-1250l0 -1875c0,-690 560,-1250 1250,-1250 690,0 1250,560 1250,1250z"/>
  <circle fill="none" stroke="black" stroke-width="52.92" stroke-linecap="round" stroke-linejoin="round" cx="16526" cy="21900" r="300"/>
  <circle fill="none" stroke="black" stroke-width="52.92" stroke-linecap="round" stroke-linejoin="round" cx="16526" cy="23100" r="300"/>
  <circle fill="none" stroke="black" stroke-width="52.92" stroke-linecap="round" stroke-linejoin="round" cx="17076" cy="22500" r="300"/>
  <circle fill="none" stroke="black" stroke-width="52.92" stroke-linecap="round" stroke-linejoin="round" cx="12576" cy="22500" r="300"/>
  <path fill="none" stroke="black" stroke-width="52.92" stroke-linecap="round" stroke-linejoin="round" d="M30201 15000c3932,0 7156,3025 7474,6875l-3774 0 0 -325c0,-276 -224,-500 -500,-500l-1950 0 0 -238c0,-690 -560,-1250 -1250,-1250 -690,0 -1250,560 -1250,1250l0 238 -1950 0c-276,0 -500,224 -500,500l0 1900c0,276 224,500 500,500l6400 0c276,0 500,-224 500,-500l0 -325 3774 0c-318,3850 -3542,6875 -7474,6875 -4142,0 -7500,-3358 -7500,-7500 0,-4142 3358,-7500 7500,-7500z"/>
  <circle fill="none" stroke="black" stroke-width="52.92" stroke-linecap="round" stroke-linejoin="round" transform="matrix(0.286348 -0.286348 0.286348 0.286348 11908.7 25416.8)" r="370"/>
  <circle fill="none" stroke="black" stroke-width="52.92" stroke-linecap="round" stroke-linejoin="round" transform="matrix(0.286348 -0.286348 0.286348 0.286348 17742.4 19583.2)" r="370"/>
  <circle fill="none" stroke="black" stroke-width="52.92" stroke-linecap="round" stroke-linejoin="round" transform="matrix(-0.286348 -0.286348 0.286348 -0.286348 17742.4 25416.8)" r="370"/>
  <circle fill="none" stroke="black" stroke-width="52.92" stroke-linecap="round" stroke-linejoin="round" transform="matrix(-0.286348 -0.286348 0.286348 -0.286348 11908.7 19583.2)" r="370"/>
  <circle fill="none" stroke="black" stroke-width="52.92" stroke-linecap="round" stroke-linejoin="round" transform="matrix(0.286348 0.286348 -0.286348 0.286348 27283.7 19583.2)" r="370"/>
  <circle fill="none" stroke="black" stroke-width="52.92" stroke-linecap="round" stroke-linejoin="round" transform="matrix(0.286348 0.286348 -0.286348 0.286348 33117.4 25416.8)" r="370"/>
  <circle fill="none" stroke="black" stroke-width="52.92" stroke-linecap="round" stroke-linejoin="round" transform="matrix(0.286348 -0.286348 0.286348 0.286348 27283.7 25416.8)" r="370"/>
  <circle fill="none" stroke="black" stroke-width="52.92" stroke-linecap="round" stroke-linejoin="round" transform="matrix(0.286348 -0.286348 0.286348 0.286348 33117.4 19583.2)" r="370"/>
 </g>
</svg>
